<?xml version="1.0" encoding="UTF-8" standalone="no"?>
<!-- Created with Inkscape (http://www.inkscape.org/) -->

<svg
   xmlns:dc="http://purl.org/dc/elements/1.1/"
   xmlns:cc="http://creativecommons.org/ns#"
   xmlns:rdf="http://www.w3.org/1999/02/22-rdf-syntax-ns#"
   xmlns:svg="http://www.w3.org/2000/svg"
   xmlns="http://www.w3.org/2000/svg"
   xmlns:sodipodi="http://sodipodi.sourceforge.net/DTD/sodipodi-0.dtd"
   xmlns:inkscape="http://www.inkscape.org/namespaces/inkscape"
   width="144"
   height="144"
   id="svg2"
   version="1.1"
   inkscape:version="0.48.2 r9819"
   sodipodi:docname="focalendar-icon.svg"
   inkscape:export-filename="/home/user/focalendar/img/focalendar-icon.png"
   inkscape:export-xdpi="90"
   inkscape:export-ydpi="90">
  <defs
     id="defs4" />
  <sodipodi:namedview
     id="base"
     pagecolor="#ffffff"
     bordercolor="#666666"
     borderopacity="1.0"
     inkscape:pageopacity="0.0"
     inkscape:pageshadow="2"
     inkscape:zoom="1.4"
     inkscape:cx="-9.6986015"
     inkscape:cy="12.126206"
     inkscape:document-units="px"
     inkscape:current-layer="layer1"
     showgrid="true"
     inkscape:window-width="1280"
     inkscape:window-height="774"
     inkscape:window-x="0"
     inkscape:window-y="26"
     inkscape:window-maximized="1">
    <inkscape:grid
       type="xygrid"
       id="grid2987"
       empspacing="9"
       visible="true"
       enabled="true"
       snapvisiblegridlinesonly="true" />
  </sodipodi:namedview>
  <metadata
     id="metadata7">
    <rdf:RDF>
      <cc:Work
         rdf:about="">
        <dc:format>image/svg+xml</dc:format>
        <dc:type
           rdf:resource="http://purl.org/dc/dcmitype/StillImage" />
        <dc:title></dc:title>
      </cc:Work>
    </rdf:RDF>
  </metadata>
  <g
     inkscape:label="Layer 1"
     inkscape:groupmode="layer"
     id="layer1"
     transform="translate(0,-908.3622)">
    <path
       style="fill:#dcdcdc;fill-opacity:0.8627451;fill-rule:evenodd;stroke:none"
       d="m 22.5,908.3622 c -12.465,0 -22.5,10.035 -22.5,22.5 l 0,31.5 144,0 0,-31.5 c 0,-12.465 -10.035,-22.5 -22.5,-22.5 l -99,0 z m -22.5,58.5 0,36 c 0.32607423,-0.045 0.63812502,0 0.984375,0 l 143.015625,0 0,-36 -144,0 z m 0,40.5 0,22.5 c 0.32607423,-0.045 0.63812502,0 0.984375,0 l 143.015625,0 0,-22.5 -143.015625,0 c -0.3462498,0 -0.65830077,0.044 -0.984375,0 z m 0.421875,27 c 2.0911816,10.2713 11.17125,18 22.078125,18 l 99,0 c 10.90687,0 19.98694,-7.7287 22.07812,-18 l -142.593745,0 c -0.19785703,0 -0.37360602,0.01 -0.5625,0 z"
       id="rect2989"
       inkscape:connector-curvature="0" />
    <path
       style="opacity:0.575;fill:#ff0000;fill-opacity:1;stroke:none"
       d="m 22.5,908.3622 c -12.465,0 -22.5,10.035 -22.5,22.5 l 0,99 c 0,12.465 10.035,22.5 22.5,22.5 l 22.5,0 0,-144 -22.5,0 z"
       id="rect3763"
       inkscape:connector-curvature="0" />
    <path
       style="opacity:0.575;fill:#18e300;fill-opacity:1;stroke:none"
       d="m 45,908.3622 36,0 0,144 -36,0 z"
       id="rect3780"
       inkscape:connector-curvature="0"
       sodipodi:nodetypes="ccccc" />
    <path
       style="opacity:0.575;fill:#2700ee;fill-opacity:1;stroke:none"
       d="m 81,908.3622 27,0 0,144 -27,0 z"
       id="rect3782"
       inkscape:connector-curvature="0"
       sodipodi:nodetypes="ccccc" />
    <path
       style="opacity:0.56999972;fill:#ff6600;fill-opacity:1;stroke:none"
       d="m 108,908.3622 0,144 13.5,0 c 1.55813,0 3.03267,-0.1231 4.5,-0.4219 l 0,-143.15622 c -1.46733,-0.29875 -2.94187,-0.42188 -4.5,-0.42188 l -13.5,0 z"
       id="path3894"
       inkscape:connector-curvature="0" />
  </g>
</svg>
